<svg width="230" height="230" viewBox="0 0 230 230" fill="none" xmlns="http://www.w3.org/2000/svg">
<g clip-path="url(#clip0_195_8)">
<path d="M59.083 135.312H81.3955L94.6104 152.445L104.04 163.602L126.685 192.688H102.778L87.3721 173.164L80.7979 163.867L59.083 135.312ZM129.938 113C129.938 127.654 127.194 140.204 121.704 150.652C116.259 161.056 108.821 169.025 99.3916 174.559C90.0062 180.092 79.3591 182.859 67.4502 182.859C55.5413 182.859 44.8721 180.092 35.4424 174.559C26.057 168.98 18.6195 160.99 13.1299 150.586C7.68457 140.138 4.96191 127.609 4.96191 113C4.96191 98.3464 7.68457 85.8177 13.1299 75.4141C18.6195 64.9661 26.057 56.9753 35.4424 51.4414C44.8721 45.9075 55.5413 43.1406 67.4502 43.1406C79.3591 43.1406 90.0062 45.9075 99.3916 51.4414C108.821 56.9753 116.259 64.9661 121.704 75.4141C127.194 85.8177 129.938 98.3464 129.938 113ZM105.169 113C105.169 102.685 103.553 93.9857 100.321 86.9023C97.1338 79.7747 92.7067 74.3958 87.04 70.7656C81.3734 67.0911 74.8434 65.2539 67.4502 65.2539C60.057 65.2539 53.527 67.0911 47.8604 70.7656C42.1937 74.3958 37.7445 79.7747 34.5127 86.9023C31.3252 93.9857 29.7314 102.685 29.7314 113C29.7314 123.315 31.3252 132.036 34.5127 139.164C37.7445 146.247 42.1937 151.626 47.8604 155.301C53.527 158.931 60.057 160.746 67.4502 160.746C74.8434 160.746 81.3734 158.931 87.04 155.301C92.7067 151.626 97.1338 146.247 100.321 139.164C103.553 132.036 105.169 123.315 105.169 113Z" fill="#842EF2"/>
<path d="M225.338 90.8867H200.502C199.794 86.8138 198.488 83.2057 196.584 80.0625C194.681 76.875 192.312 74.1745 189.479 71.9609C186.646 69.7474 183.414 68.0872 179.784 66.9805C176.198 65.8294 172.324 65.2539 168.163 65.2539C160.769 65.2539 154.217 67.1133 148.506 70.832C142.795 74.5065 138.324 79.9075 135.092 87.0352C131.861 94.1185 130.245 102.773 130.245 113C130.245 123.404 131.861 132.169 135.092 139.297C138.368 146.38 142.84 151.737 148.506 155.367C154.217 158.953 160.747 160.746 168.096 160.746C172.169 160.746 175.976 160.215 179.518 159.152C183.104 158.046 186.314 156.43 189.147 154.305C192.025 152.18 194.437 149.568 196.385 146.469C198.377 143.37 199.75 139.828 200.502 135.844L225.338 135.977C224.409 142.44 222.394 148.505 219.295 154.172C216.241 159.839 212.234 164.841 207.276 169.18C202.318 173.474 196.518 176.839 189.877 179.273C183.237 181.664 175.866 182.859 167.764 182.859C155.811 182.859 145.142 180.092 135.756 174.559C126.371 169.025 118.978 161.034 113.577 150.586C108.176 140.138 105.475 127.609 105.475 113C105.475 98.3464 108.198 85.8177 113.643 75.4141C119.088 64.9661 126.504 56.9753 135.889 51.4414C145.275 45.9075 155.9 43.1406 167.764 43.1406C175.334 43.1406 182.374 44.2031 188.881 46.3281C195.389 48.4531 201.189 51.5742 206.28 55.6914C211.371 59.7643 215.555 64.7669 218.831 70.6992C222.151 76.5872 224.32 83.3164 225.338 90.8867Z" fill="#842EF2"/>
</g>
<defs>
<clipPath id="clip0_195_8">
<rect width="230" height="230" rx="115" fill="white"/>
</clipPath>
</defs>
</svg>
